# xmcd CD database file
#
# Track frame offsets:
#	150
#	16311
#	38749
#	52429
#	84965
#	113452
#	129758
#	148522
#	170223
#	199887
#	218515
#	238218
#
# Disc length: 3416 seconds
#
# Revision: 0
# Processed by: cddbd v1.5.2PL0 Copyright (c) Steve Scherf et al.
# Submitted via: CDex 1.51
#
DISCID=a30d560c
DTITLE=Asleep at the Wheel - with the Fort Worth Syphony Orchestra
DYEAR=1900
DGENRE=Country
TTITLE0=Devil's Dream
TTITLE1=Cherokee Maiden - Sing Sing Sing
TTITLE2=Don't Fence Me In
TTITLE3=Ode To Joy
TTITLE4=What A Wonderful World
TTITLE5=Choo Choo Ch'Boogie
TTITLE6=I'm an Old Cowhand
TTITLE7=Green Leaves of Summer
TTITLE8=Faded Love
TTITLE9=Sorry
TTITLE10=House of Blue Lights
TTITLE11=Miles and Miles of Texas
EXTD=
EXTT0=
EXTT1=
EXTT2=
EXTT3=
EXTT4=
EXTT5=
EXTT6=
EXTT7=
EXTT8=
EXTT9=
EXTT10=
EXTT11=
PLAYORDER=
